<?xml version="1.0" encoding="utf-8"?>
<!-- Generator: Adobe Illustrator 16.0.0, SVG Export Plug-In . SVG Version: 6.00 Build 0)  -->
<!DOCTYPE svg PUBLIC "-//W3C//DTD SVG 1.1//EN" "http://www.w3.org/Graphics/SVG/1.1/DTD/svg11.dtd">
<svg version="1.1" id="Layer_1" xmlns="http://www.w3.org/2000/svg" xmlns:xlink="http://www.w3.org/1999/xlink" x="0px" y="0px"
	 width="308.509px" height="325.109px" viewBox="-612.002 -154.348 308.509 325.109"
	 enable-background="new -612.002 -154.348 308.509 325.109" xml:space="preserve">
<path fill="#FFFFFF" d="M-304.226,67.538c-1.3-9.506-3.216-18.991-5.714-28.256c-4.338-16.092-9.149-32.065-14.129-47.973
	c-3.616-11.555-4.948-23.203-3.396-35.202c1.284-9.953,3.939-19.547,8.179-28.607c3.76-8.029,8.04-15.814,12.144-23.679
	c0.628-1.204,0.714-2.101-0.189-3.255c-8.27-10.549-16.469-21.15-24.708-31.721c-5.67-7.278-11.373-14.533-17.064-21.795
	c-0.71-0.906-1.337-1.705-2.818-1.28c-14.002,4.016-28.301,6.675-42.693,8.754c-9.371,1.354-18.818,2.303-28.261,3.029
	c-9.306,0.715-18.65,1.238-27.98,1.266c-10.766,0.034-21.534-0.505-32.296-0.919c-4.986-0.192-9.973-0.573-14.94-1.054
	c-6.651-0.644-13.296-1.39-19.923-2.237c-6.348-0.812-12.72-1.567-18.996-2.785c-8.845-1.717-17.625-3.791-26.403-5.833
	c-1.431-0.333-2.209-0.023-3.043,1.067c-5.81,7.588-11.649,15.152-17.503,22.704c-7.876,10.158-15.763,20.308-23.678,30.434
	c-0.921,1.177-1.167,2.101-0.285,3.511c2.091,3.346,4.05,6.784,5.896,10.271c8.17,15.438,13.385,31.743,14.242,49.298
	c0.524,10.705-0.375,21.216-3.742,31.487c-4.632,14.125-9.236,28.263-13.517,42.495c-3.773,12.549-6.64,25.313-6.537,38.549
	c-0.14,0.017-0.278,0.031-0.42,0.046c0.599,5.053,0.978,10.145,1.833,15.153c2.545,14.836,9.645,26.741,22.292,35.397
	c10.614,7.267,22.165,12.116,34.538,15.178c10.051,2.486,20.282,3.982,30.581,5.006c6.874,0.684,13.741,1.541,20.635,1.896
	c6.646,0.342,12.838,2.016,18.735,4.961c8.949,4.473,16.817,10.545,24.604,16.727c0.776,0.617,1.322,0.893,2.217,0.117
	c6.368-5.518,13.31-10.234,20.521-14.574c6.123-3.682,12.618-6.391,19.771-7.115c7.802-0.787,15.662-1.086,23.435-2.068
	c9.053-1.145,18.102-2.498,27.04-4.314c11.575-2.352,22.695-6.203,32.982-12.157c6.886-3.986,13.334-8.513,17.941-15.214
	C-305.009,100.494-301.904,84.515-304.226,67.538z M-502.711-41.771c0.004,17.652,0.008,35.304,0.012,52.956
	c0.001,5.224-0.029,10.445,0.012,15.671c0.084,10.829-6.625,19.63-16.71,22.671c-10.104,3.047-20.061,2.807-29.337-2.812
	c-6.025-3.646-9.839-9.015-10.869-16.086c-0.339-2.326-0.31-4.717-0.315-7.078c-0.032-10.008-0.015-20.017-0.015-30.024
	c0.022-0.002,0.042-0.002,0.062-0.002c0-11.383-0.046-22.767,0.031-34.15c0.021-3.071-0.812-5.407-3.694-6.911
	c-1.791-0.935-2.587-4.126-1.625-5.941c0.267-0.501,0.947-0.965,1.515-1.085c1.118-0.237,2.29-0.307,3.438-0.299
	c7.75,0.055,15.501,0.136,23.251,0.238c2.396,0.032,2.491,0.33,2.667,2.664c0.183,2.417-0.566,4.088-2.786,5.184
	c-2.65,1.311-2.792,3.901-2.85,6.384c-0.055,2.359,0.194,4.724,0.197,7.086c0.021,15.893,0.007,31.786,0.015,47.679
	c0.001,4.834-0.105,9.676,0.113,14.502c0.104,2.256,0.599,4.584,1.39,6.702c1.403,3.759,4.407,5.622,8.386,5.81
	c1.64,0.076,3.333,0.152,4.925-0.16c5.132-1.012,8.318-4.305,9.049-9.54c0.468-3.354,0.682-6.769,0.692-10.155
	c0.067-17.762,0.034-35.525,0.037-53.288c0-3.511,0.03-7.021,0.011-10.532c-0.014-2.276-1.372-3.73-3.149-4.886
	c-2.009-1.305-3.092-4.306-2.096-6.398c0.25-0.525,1.219-0.994,1.862-1.001c6.323-0.071,12.646-0.084,18.97-0.009
	c1.968,0.023,2.311,0.691,2.423,2.682c0.135,2.349-0.732,3.99-2.806,5.095C-501.894-45.747-502.712-43.971-502.711-41.771z
	 M-425.065,48.809c-1.083-0.478-2.339-0.956-3.044-1.823c-1.874-2.307-4.333-3.201-7.104-3.535
	c-0.486-0.061-1.127,0.123-1.513,0.428c-1.013,0.803-1.963,0.649-3.062,0.217c-1.718-0.678-3.572-1.06-5.2-1.895
	c-0.929-0.477-1.531-1.594-2.259-2.441c-0.715-0.836-1.4-1.695-2.102-2.547c-0.488,1.039-1.308,2.047-1.403,3.121
	c-0.312,3.439-0.39,6.902-0.488,10.357c-0.11,3.792-0.253,7.587-0.185,11.377c0.061,3.227,0.352,6.453,0.638,9.671
	c0.138,1.528,1.023,2.494,2.521,3.126c6.103,2.573,12.181,5.206,18.209,7.941c1.634,0.742,3.064,1.926,4.859,3.08
	c-0.699,0.447-0.91,0.697-1.123,0.699c-3.048,0.012-6.213,0.516-9.118-0.138c-5.538-1.239-10.779,0.138-16.105,0.899
	c-4.233,0.607-8.403,0.553-12.579-0.361c-3.601-0.788-7.175-0.676-10.863-0.312c-3.016,0.299-6.058,1.222-9.241,0.342
	c-1.708-0.473-3.691,0.115-5.551,0.109c-0.741-0.002-1.479-0.312-2.222-0.484c0.568-0.518,1.053-1.246,1.721-1.516
	c6.549-2.635,13.13-5.19,19.7-7.771c0.458-0.182,0.896-0.422,1.364-0.567c4.142-1.31,5.92-4.235,5.851-8.459
	c-0.038-2.255-0.09-4.511-0.054-6.764c0.104-6.312,0.277-12.62,0.352-18.933c0.015-1.188-0.312-2.381-0.48-3.569
	c-0.206-0.058-0.411-0.11-0.617-0.165c-0.978,0.834-1.938,1.688-2.937,2.494c-0.848,0.688-1.665,1.48-2.634,1.922
	c-0.677,0.307-1.666,0.312-2.376,0.062c-1.124-0.396-1.88-0.137-2.642,0.654c-0.859,0.896-1.789,1.725-2.662,2.605
	c-1.108,1.119-2.254,1.08-3.752,0.668c-1.123-0.311-2.479,0.268-3.735,0.391c-1.776,0.174-3.575,0.186-5.331,0.473
	c-1.488,0.242-2.922,0.807-4.394,1.176c-0.578,0.146-1.194,0.227-1.789,0.199c-2.055-0.093-2.646-1.191-1.868-3.078
	c0.307-0.746,0.439-1.672,0.314-2.463c-0.293-1.854,0.272-3.24,1.808-4.248c1.47-0.966,2.654-2.02,2.733-4.018
	c0.027-0.688,0.803-1.396,1.339-2.001c1.562-1.769,3.231-3.44,4.738-5.252c0.459-0.552,0.529-1.427,0.776-2.149
	c-0.698-0.22-1.414-0.656-2.089-0.603c-0.89,0.073-1.767,0.487-2.61,0.844c-1.03,0.433-2.057,0.699-2.83-0.323
	c-0.812-1.076,0.104-1.763,0.717-2.545c2.5-3.183,4.981-6.381,7.413-9.615c1.169-1.557,2.233-3.191,3.294-4.826
	c0.177-0.271,0.093-0.711,0.178-1.56c-1.725,0.516-3.176,0.949-4.698,1.406c-0.546-1.513-0.172-2.836,0.547-4.208
	c0.646-1.233,1.169-2.562,1.522-3.907c0.301-1.14-0.311-1.65-1.56-1.631c-0.893,0.013-1.79-0.349-2.686-0.544
	c0.605-0.781,1.21-1.563,1.82-2.34c0.065-0.083,0.188-0.119,0.264-0.196c3.781-3.873,8.075-7.301,10.722-12.165
	c0.318-0.568,0.312-1.306,0.454-1.973c-1.326-0.06-2.359,0.127-3.198-0.194c-1.615-0.617-1.856-1.758-0.812-3.102
	c1.768-2.276,2.779-4.893,3.473-7.64c0.129-0.513-0.02-1.245-0.318-1.687c-0.887-1.311-0.553-2.378,0.191-3.634
	c2.926-4.925,5.766-9.9,8.585-14.887c0.221-0.392,0.036-1.012,0.042-1.526c-0.454,0.027-0.95-0.054-1.354,0.101
	c-2.1,0.804-2.067,0.824-2.124-1.376c-0.016-0.576-0.039-1.42-0.394-1.672c-1.342-0.955-0.698-1.871-0.148-2.828
	c0.217-0.378,0.466-0.755,0.769-1.065c5.267-5.368,7.896-12.328,11.33-18.796c0.916-1.725,1.592-3.578,2.362-5.378
	c0.62-1.446,1.383-1.681,2.157-0.378c1.477,2.479,2.838,5.052,3.962,7.707c1.579,3.732,2.729,7.664,5.903,10.496
	c0.225,0.2,0.383,0.765,0.259,0.985c-0.138,0.245-0.624,0.365-0.975,0.407c-1.839,0.22-2.225,0.742-1.8,2.55
	c0.05,0.21,0.146,0.415,0.244,0.608c1.989,3.888,3.972,7.781,5.98,11.659c1.297,2.503,2.638,4.985,4.03,7.614
	c-0.771-0.175-1.563-0.45-2.371-0.509c-0.616-0.045-1.407-0.001-1.824,0.353c-0.274,0.233-0.242,1.225,0.024,1.636
	c0.917,1.41,1.975,2.733,3.022,4.051c0.954,1.197,2.003,2.318,2.94,3.526c0.542,0.699,0.518,1.322-0.376,1.896
	c-0.357,0.23-0.679,1.16-0.5,1.488c1.897,3.472,3.849,6.918,5.902,10.299c0.761,1.25,1.863,2.287,2.754,3.465
	c0.333,0.44,0.503,1.003,0.763,1.542c-3.363,1.022-3.363,1.022-6.287,0.278c0.348,0.923,0.466,1.701,0.88,2.258
	c2.483,3.337,4.952,6.695,7.611,9.889c0.898,1.079,2.377,1.661,3.527,2.551c0.532,0.411,0.917,1.015,1.368,1.531
	c-0.607,0.212-1.207,0.455-1.825,0.63c-0.812,0.229-1.633,0.427-2.456,0.6c-0.611,0.127-1.237,0.278-1.854,0.265
	c-0.738-0.016-1.475-0.196-2.21-0.305c-0.157,0.129-0.313,0.258-0.473,0.387c0.438,1.033,0.703,2.189,1.341,3.078
	c2.498,3.479,5.105,6.876,7.693,10.289c0.473,0.623,1.031,1.102,0.334,1.988c-0.218,0.273-0.026,1.065,0.22,1.479
	c1.265,2.113,2.629,4.166,3.908,6.271c0.45,0.738,0.761,1.564,1.136,2.354c-0.133,0.152-0.265,0.305-0.396,0.457
	c-1.386-0.284-2.771-0.568-4.229-0.866c-0.54,1.519,0.293,2.46,0.947,3.429c1.552,2.297,3.155,4.561,4.691,6.866
	c0.736,1.106,0.63,2.208-0.028,3.401c-0.478,0.861-0.603,1.917-0.905,2.879c-0.139,0.438-0.295,1.199-0.5,1.22
	c-0.531,0.052-1.103-0.21-1.643-0.391c-0.125-0.041-0.188-0.261-0.288-0.392c-0.493-0.646-0.908-1.727-1.505-1.838
	c-1.199-0.227-2.533-0.065-3.739,0.23c-0.498,0.123-0.995,0.959-1.16,1.562C-423.729,48.944-424.382,49.109-425.065,48.809z
	 M-396.031,49.47c-2.543,0.188-5.083,0.471-7.63,0.55c-1.382,0.043-1.977-0.837-1.958-2.269c0.054-4.287,0.021-8.576,0.021-12.865
	c-0.008,0.004-0.014,0.004-0.021,0.004c0-4.014-0.029-8.027,0.012-12.041c0.028-2.889,0.408-3.225,3.229-3.223
	c1.102,0,2.206,0.074,3.298-0.02c1.684-0.146,2.59,0.686,2.987,2.189c0.681,2.588,1.258,5.205,1.986,7.779
	c1.442,5.098,3.786,9.605,8.628,12.325c6.995,3.929,20.017,2.433,22.923-9.155c1.614-6.437-0.256-12.156-4.338-17.191
	c-4.328-5.338-9.856-9.377-15.146-13.667c-4.562-3.699-9.378-7.1-13.789-10.966c-5.249-4.602-9.303-10.155-10.435-17.256
	c-2.107-13.235,4.247-24.563,16.86-29.284c6.648-2.487,13.374-2.011,19.978,0.133c2.846,0.924,5.441,1.423,8.434,0.448
	c1.84-0.6,4.026-0.329,6.024-0.128c0.646,0.065,1.688,1.141,1.7,1.774c0.173,7.408,0.197,14.821,0.224,22.232
	c0.007,1.644-0.881,2.328-2.551,2.194c-1.365-0.11-2.75-0.072-4.121-0.004c-1.621,0.081-2.606-0.661-3.099-2.146
	c-0.736-2.23-1.409-4.483-2.194-6.696c-1.349-3.79-3.323-7.173-6.698-9.536c-5.093-3.566-15.924-2.722-18.243,6.431
	c-0.779,3.081-0.131,6.087,1.283,8.923c2.396,4.803,6.277,8.275,10.33,11.601c7.256,5.958,14.63,11.779,21.724,17.925
	c5.055,4.38,8.732,9.843,10.456,16.428c2.371,9.057,1.677,17.696-4.299,25.256c-5.225,6.607-12.086,10.729-20.506,12
	c-7.189,1.082-14.177-0.055-21.112-1.957C-393.282,48.927-394.707,49.371-396.031,49.47z"/>
</svg>
