<?xml version="1.0" encoding="utf-8"?>
<!-- Generator: Adobe Illustrator 16.0.0, SVG Export Plug-In . SVG Version: 6.00 Build 0)  -->
<!DOCTYPE svg PUBLIC "-//W3C//DTD SVG 1.1//EN" "http://www.w3.org/Graphics/SVG/1.1/DTD/svg11.dtd">
<svg version="1.1" id="Layer_1" xmlns="http://www.w3.org/2000/svg" xmlns:xlink="http://www.w3.org/1999/xlink" x="0px" y="0px"
	 width="308.516px" height="325.111px" viewBox="0 0 308.516 325.111" enable-background="new 0 0 308.516 325.111"
	 xml:space="preserve">
<g>
	<g>
		<path fill="#FFFFFF" d="M0.418,230.153c-0.102-13.235,2.764-26,6.537-38.549c4.281-14.231,8.885-28.369,13.517-42.494
			c3.367-10.271,4.267-20.782,3.742-31.487c-0.857-17.555-6.072-33.86-14.242-49.298C8.125,64.838,6.166,61.4,4.075,58.054
			c-0.881-1.41-0.635-2.334,0.286-3.511c7.915-10.126,15.801-20.276,23.677-30.434c5.854-7.552,11.694-15.116,17.503-22.704
			c0.834-1.09,1.613-1.4,3.043-1.067c8.779,2.042,17.559,4.116,26.404,5.833c6.276,1.218,12.648,1.973,18.996,2.785
			c6.627,0.847,13.271,1.593,19.922,2.237c4.968,0.481,9.955,0.862,14.941,1.054c10.762,0.414,21.53,0.953,32.296,0.919
			c9.33-0.028,18.675-0.551,27.98-1.266c9.443-0.726,18.89-1.675,28.261-3.029c14.393-2.079,28.691-4.738,42.693-8.754
			c1.482-0.425,2.109,0.374,2.819,1.28c5.691,7.262,11.394,14.517,17.064,21.795c8.239,10.571,16.439,21.172,24.708,31.721
			c0.904,1.154,0.818,2.051,0.19,3.255c-4.104,7.865-8.384,15.65-12.144,23.679c-4.239,9.06-6.894,18.654-8.179,28.607
			c-1.551,11.999-0.219,23.647,3.397,35.202c4.979,15.908,9.791,31.881,14.129,47.973c2.498,9.265,4.414,18.75,5.714,28.256
			c2.322,16.978-0.784,32.956-10.652,47.308c-4.607,6.701-11.055,11.227-17.941,15.213c-10.287,5.955-21.407,9.805-32.983,12.158
			c-8.938,1.816-17.987,3.17-27.04,4.314c-7.772,0.982-15.632,1.28-23.434,2.068c-7.152,0.724-13.648,3.433-19.771,7.115
			c-7.211,4.339-14.152,9.057-20.52,14.575c-0.895,0.775-1.441,0.5-2.217-0.117c-7.787-6.183-15.655-12.255-24.604-16.727
			c-5.898-2.946-12.089-4.619-18.736-4.962c-6.893-0.355-13.761-1.213-20.635-1.896c-10.298-1.023-20.53-2.52-30.581-5.006
			c-12.373-3.062-23.923-7.912-34.538-15.178c-12.647-8.656-19.747-20.562-22.292-35.398c-0.855-5.008-1.234-10.1-1.833-15.153
			C0.14,230.185,0.279,230.17,0.418,230.153z M298.733,232.485c-0.032-14.764-2.359-27.717-6.072-40.402
			c-4.451-15.212-9.242-30.324-13.839-45.493c-2.071-6.837-3.809-13.754-4.092-20.945c-0.352-8.861,1.086-17.513,3.136-26.084
			c3.418-14.292,9.082-27.717,15.858-40.699c0.668-1.281,0.674-2.139-0.254-3.33c-11.52-14.787-22.982-29.616-34.43-44.458
			c-0.713-0.924-1.394-1.207-2.523-0.879c-2.736,0.794-5.476,1.634-8.267,2.181c-9.471,1.859-18.922,3.886-28.462,5.302
			c-9.44,1.402-18.969,2.282-28.481,3.128c-8.099,0.72-16.223,1.3-24.348,1.528c-16.494,0.462-32.994,0.306-49.436-1.271
			c-9.778-0.938-19.591-1.835-29.265-3.485c-12.263-2.091-24.402-4.906-36.579-7.484c-1.053-0.223-1.61-0.02-2.221,0.766
			C37.933,25.708,26.396,40.55,14.826,55.365c-0.91,1.166-0.961,2.079-0.223,3.382c5.45,9.628,10.07,19.637,13.375,30.213
			c2.886,9.241,5.225,18.628,5.706,28.333c0.612,12.373-1.462,24.395-5.404,36.114c-3.619,10.761-7.439,21.459-10.781,32.305
			c-3.513,11.402-5.391,23.173-6.923,34.996c-1.045,8.066-1.098,16.127,0.172,24.146c2.215,13.979,10.303,24.086,21.911,31.44
			c9.089,5.759,19.455,8.499,29.771,11.204c14.324,3.758,28.967,4.947,43.691,5.634c7.771,0.362,15.357,1.769,22.524,5.015
			c8.399,3.805,16.07,8.813,23.588,14.088c2.087,1.464,2.076,1.479,4.168-0.057c0.133-0.098,0.259-0.205,0.389-0.307
			c7.535-5.898,15.815-10.52,24.671-14.086c5.445-2.191,10.965-4.132,16.95-4.436c7.677-0.389,15.364-0.793,23.009-1.569
			c13.025-1.324,25.83-3.886,38.19-8.281c12.062-4.289,23.224-10.067,30.732-21c2.127-3.095,4.082-6.419,5.447-9.899
			C298.499,245.694,298.535,238.313,298.733,232.485z"/>
		<path fill="#FFFFFF" d="M135.885,136.493c-1.326-0.06-2.359,0.127-3.198-0.194c-1.615-0.617-1.857-1.758-0.813-3.102
			c1.768-2.276,2.78-4.893,3.473-7.64c0.129-0.513-0.02-1.245-0.318-1.687c-0.887-1.311-0.553-2.378,0.191-3.634
			c2.926-4.925,5.766-9.9,8.585-14.887c0.221-0.392,0.036-1.012,0.042-1.526c-0.454,0.027-0.95-0.054-1.355,0.101
			c-2.099,0.804-2.067,0.824-2.124-1.376c-0.015-0.576-0.039-1.42-0.393-1.672c-1.342-0.955-0.698-1.871-0.149-2.828
			c0.217-0.378,0.466-0.755,0.769-1.065c5.267-5.368,7.896-12.328,11.33-18.796c0.916-1.725,1.592-3.578,2.362-5.378
			c0.62-1.446,1.383-1.681,2.158-0.378c1.476,2.479,2.837,5.052,3.961,7.707c1.58,3.732,2.73,7.664,5.904,10.496
			c0.224,0.2,0.383,0.765,0.259,0.985c-0.138,0.245-0.624,0.365-0.975,0.407c-1.839,0.22-2.225,0.742-1.8,2.55
			c0.05,0.21,0.146,0.415,0.244,0.608c1.99,3.888,3.972,7.781,5.981,11.659c1.297,2.503,2.637,4.985,4.03,7.614
			c-0.771-0.175-1.563-0.45-2.371-0.509c-0.616-0.045-1.407-0.001-1.824,0.353c-0.275,0.233-0.242,1.225,0.024,1.636
			c0.917,1.41,1.975,2.733,3.023,4.051c0.954,1.197,2.003,2.318,2.94,3.526c0.542,0.699,0.518,1.322-0.376,1.896
			c-0.357,0.23-0.679,1.16-0.5,1.488c1.898,3.472,3.849,6.918,5.902,10.299c0.761,1.25,1.864,2.287,2.754,3.465
			c0.333,0.44,0.503,1.003,0.763,1.542c-3.363,1.022-3.363,1.022-6.287,0.278c0.348,0.923,0.466,1.701,0.88,2.258
			c2.483,3.337,4.952,6.695,7.611,9.889c0.899,1.079,2.377,1.661,3.527,2.551c0.533,0.411,0.917,1.015,1.369,1.531
			c-0.608,0.212-1.207,0.455-1.826,0.63c-0.811,0.229-1.632,0.427-2.456,0.6c-0.611,0.127-1.237,0.278-1.854,0.265
			c-0.738-0.016-1.475-0.196-2.21-0.305c-0.157,0.129-0.314,0.258-0.473,0.387c0.438,1.033,0.703,2.189,1.341,3.078
			c2.498,3.479,5.106,6.876,7.693,10.289c0.473,0.623,1.032,1.102,0.334,1.988c-0.217,0.274-0.026,1.066,0.22,1.479
			c1.265,2.113,2.629,4.166,3.908,6.271c0.451,0.739,0.761,1.565,1.136,2.354c-0.133,0.152-0.265,0.305-0.396,0.457
			c-1.386-0.284-2.772-0.568-4.229-0.866c-0.54,1.519,0.293,2.46,0.947,3.429c1.552,2.297,3.156,4.56,4.692,6.866
			c0.736,1.106,0.63,2.208-0.029,3.401c-0.477,0.861-0.602,1.917-0.905,2.879c-0.138,0.438-0.295,1.199-0.5,1.22
			c-0.531,0.052-1.102-0.21-1.642-0.391c-0.125-0.041-0.188-0.261-0.288-0.392c-0.494-0.646-0.909-1.726-1.505-1.838
			c-1.2-0.226-2.534-0.065-3.74,0.231c-0.498,0.123-0.995,0.959-1.16,1.562c-0.27,0.986-0.924,1.151-1.606,0.851
			c-1.083-0.478-2.339-0.956-3.044-1.823c-1.874-2.307-4.333-3.201-7.104-3.535c-0.486-0.061-1.127,0.123-1.512,0.428
			c-1.013,0.803-1.963,0.649-3.062,0.217c-1.718-0.678-3.572-1.06-5.2-1.895c-0.929-0.477-1.531-1.594-2.259-2.441
			c-0.715-0.836-1.4-1.696-2.101-2.547c-0.489,1.039-1.308,2.047-1.404,3.121c-0.311,3.439-0.389,6.902-0.488,10.357
			c-0.11,3.792-0.253,7.587-0.185,11.377c0.061,3.227,0.352,6.453,0.638,9.671c0.138,1.528,1.024,2.494,2.521,3.126
			c6.102,2.573,12.18,5.206,18.209,7.941c1.633,0.742,3.064,1.926,4.859,3.08c-0.699,0.447-0.91,0.697-1.123,0.699
			c-3.048,0.012-6.213,0.516-9.118-0.137c-5.538-1.24-10.78,0.137-16.106,0.9c-4.233,0.607-8.403,0.552-12.579-0.362
			c-3.6-0.788-7.175-0.676-10.863-0.312c-3.016,0.299-6.058,1.221-9.241,0.342c-1.708-0.473-3.692,0.115-5.551,0.109
			c-0.741-0.002-1.48-0.313-2.222-0.484c0.569-0.518,1.053-1.247,1.721-1.516c6.549-2.635,13.13-5.191,19.7-7.772
			c0.458-0.181,0.896-0.421,1.364-0.567c4.142-1.31,5.92-4.236,5.851-8.459c-0.038-2.255-0.09-4.511-0.054-6.764
			c0.104-6.311,0.278-12.62,0.352-18.932c0.014-1.188-0.312-2.381-0.481-3.57c-0.206-0.057-0.411-0.11-0.617-0.165
			c-0.977,0.834-1.938,1.688-2.936,2.495c-0.848,0.687-1.665,1.48-2.634,1.921c-0.677,0.307-1.666,0.313-2.376,0.062
			c-1.124-0.396-1.88-0.136-2.642,0.655c-0.859,0.896-1.789,1.724-2.662,2.606c-1.108,1.119-2.254,1.08-3.752,0.668
			c-1.123-0.311-2.479,0.267-3.735,0.39c-1.776,0.174-3.575,0.185-5.331,0.472c-1.488,0.243-2.922,0.807-4.394,1.176
			c-0.578,0.146-1.194,0.227-1.789,0.199c-2.054-0.092-2.645-1.191-1.868-3.078c0.307-0.746,0.44-1.672,0.315-2.463
			c-0.293-1.853,0.272-3.24,1.807-4.248c1.47-0.965,2.654-2.019,2.734-4.017c0.027-0.688,0.802-1.396,1.338-2.001
			c1.562-1.768,3.232-3.441,4.739-5.252c0.459-0.551,0.529-1.426,0.776-2.15c-0.698-0.219-1.414-0.656-2.089-0.602
			c-0.889,0.074-1.766,0.488-2.61,0.844c-1.03,0.432-2.057,0.699-2.83-0.324c-0.813-1.076,0.103-1.762,0.717-2.544
			c2.5-3.183,4.981-6.381,7.413-9.616c1.169-1.556,2.233-3.191,3.294-4.826c0.176-0.271,0.092-0.711,0.177-1.559
			c-1.724,0.516-3.175,0.949-4.698,1.406c-0.546-1.513-0.172-2.836,0.547-4.208c0.646-1.233,1.169-2.562,1.522-3.907
			c0.301-1.14-0.31-1.65-1.559-1.631c-0.893,0.013-1.79-0.349-2.686-0.544c0.606-0.781,1.21-1.563,1.821-2.34
			c0.065-0.083,0.188-0.119,0.263-0.196c3.782-3.873,8.075-7.301,10.722-12.165C135.749,137.898,135.743,137.16,135.885,136.493z"/>
		<path fill="#FFFFFF" d="M52.128,147.871c0-11.383-0.046-22.767,0.031-34.15c0.021-3.071-0.812-5.407-3.694-6.911
			c-1.791-0.935-2.587-4.126-1.625-5.941c0.267-0.501,0.947-0.965,1.515-1.085c1.118-0.237,2.29-0.307,3.438-0.299
			c7.75,0.055,15.501,0.136,23.251,0.238c2.396,0.032,2.491,0.33,2.667,2.664c0.183,2.417-0.566,4.088-2.786,5.184
			c-2.65,1.311-2.792,3.901-2.85,6.384c-0.054,2.359,0.195,4.724,0.198,7.086c0.021,15.893,0.007,31.786,0.014,47.679
			c0.001,4.834-0.105,9.676,0.114,14.502c0.103,2.256,0.598,4.584,1.389,6.702c1.404,3.759,4.408,5.622,8.386,5.81
			c1.64,0.076,3.333,0.152,4.925-0.161c5.132-1.011,8.318-4.304,9.049-9.54c0.467-3.354,0.681-6.768,0.692-10.155
			c0.067-17.762,0.034-35.525,0.037-53.288c0-3.511,0.03-7.021,0.011-10.532c-0.014-2.276-1.372-3.73-3.15-4.886
			c-2.008-1.305-3.091-4.306-2.095-6.398c0.25-0.525,1.219-0.994,1.862-1.001c6.323-0.071,12.647-0.084,18.97-0.009
			c1.968,0.023,2.31,0.691,2.423,2.682c0.134,2.349-0.733,3.99-2.806,5.095c-1.987,1.059-2.806,2.835-2.805,5.035
			c0.004,17.652,0.008,35.304,0.012,52.956c0.001,5.224-0.029,10.446,0.012,15.671c0.084,10.829-6.625,19.63-16.71,22.671
			c-10.104,3.047-20.061,2.806-29.337-2.812c-6.026-3.647-9.839-9.015-10.869-16.086c-0.339-2.326-0.31-4.717-0.316-7.078
			c-0.032-10.008-0.014-20.017-0.014-30.025C52.089,147.871,52.109,147.871,52.128,147.871z"/>
		<path fill="#FFFFFF" d="M206.381,189.237c0-4.014-0.029-8.027,0.012-12.041c0.028-2.889,0.408-3.225,3.229-3.223
			c1.102,0,2.206,0.075,3.298-0.019c1.684-0.146,2.59,0.685,2.987,2.19c0.681,2.588,1.258,5.205,1.987,7.779
			c1.442,5.098,3.786,9.605,8.628,12.325c6.995,3.929,20.016,2.433,22.923-9.155c1.614-6.437-0.256-12.156-4.338-17.191
			c-4.328-5.338-9.857-9.378-15.146-13.667c-4.562-3.699-9.378-7.1-13.789-10.966c-5.249-4.602-9.303-10.155-10.434-17.256
			c-2.108-13.235,4.247-24.563,16.86-29.284c6.648-2.487,13.374-2.011,19.977,0.133c2.846,0.924,5.442,1.423,8.434,0.448
			c1.84-0.6,4.026-0.329,6.024-0.128c0.646,0.065,1.688,1.141,1.701,1.774c0.172,7.408,0.197,14.821,0.223,22.232
			c0.007,1.644-0.881,2.328-2.551,2.194c-1.365-0.11-2.75-0.072-4.121-0.004c-1.621,0.081-2.606-0.661-3.098-2.146
			c-0.737-2.23-1.409-4.483-2.195-6.696c-1.348-3.79-3.323-7.173-6.698-9.536c-5.093-3.566-15.924-2.722-18.243,6.431
			c-0.779,3.081-0.131,6.087,1.283,8.923c2.396,4.803,6.278,8.275,10.33,11.601c7.256,5.958,14.63,11.779,21.724,17.925
			c5.055,4.38,8.732,9.843,10.456,16.428c2.371,9.056,1.677,17.696-4.299,25.256c-5.224,6.607-12.086,10.729-20.506,12
			c-7.189,1.082-14.176-0.055-21.112-1.957c-1.209-0.332-2.634,0.111-3.958,0.211c-2.543,0.188-5.083,0.47-7.63,0.549
			c-1.382,0.043-1.976-0.837-1.958-2.268c0.054-4.287,0.021-8.576,0.021-12.865C206.394,189.237,206.388,189.237,206.381,189.237z"
			/>
		<path fill="#FFFFFF" d="M88.32,55.599c1.543,2.6,3.013,5.077,4.615,7.776c-1.434,1.113-3.448,1.272-5.058,1.629
			c-0.268-1.158-0.324-2.208-0.751-3.077c-0.842-1.716-1.888-3.332-2.812-4.923c-0.225-0.041-0.333-0.093-0.429-0.074
			c-3.799,0.754-3.987,0.937-3.939,4.688c0.021,1.741,0.261,3.478,0.311,5.219c0.012,0.361-0.299,0.934-0.608,1.067
			c-1.194,0.516-2.448,0.894-3.915,1.404c0.062-0.693,0.144-1.16,0.143-1.625c-0.013-6.792-0.054-13.583-0.022-20.373
			c0.002-0.486,0.391-1.256,0.789-1.411c3.207-1.251,6.424-2.497,9.706-3.529c4.122-1.297,6.029-0.19,6.398,4.892
			C92.995,50.675,91.273,53.358,88.32,55.599z M79.932,54.229c2.388-0.788,4.609-1.374,6.707-2.256
			c1.891-0.796,2.567-2.677,2.067-4.481c-0.318-1.148-0.974-1.542-2.057-1.21c-1.983,0.608-3.963,1.229-5.913,1.934
			c-0.349,0.126-0.75,0.676-0.771,1.049C79.883,50.833,79.932,52.411,79.932,54.229z"/>
		<path fill="#FFFFFF" d="M209.053,61.221c-1.929-0.425-3.745-0.825-5.191-1.144c-0.259-1.353-0.348-2.403-0.674-3.374
			c-0.436-1.291-1.181-2.481-1.567-3.782c-0.796-2.67-2.252-4.315-5.564-3.732c0,2.841,0,5.915,0,9.293
			c-1.536-0.3-3.04-0.594-4.281-0.836c0.438-7.841,0.266-15.435-0.012-23.226c3.684,0.739,7.572,1.288,11.324,2.328
			c4.826,1.337,7.047,6.466,5.156,11.17c-0.659,1.639-1.905,2.472-3.966,2.675C205.873,54.144,207.398,57.539,209.053,61.221z
			 M195.777,44.838c2.265,0.466,4.34,0.963,6.438,1.292c0.932,0.146,2.011,0.223,2.442-1.062c0.763-2.271-0.092-4.148-2.407-4.765
			c-1.79-0.477-3.644-0.743-5.483-0.981c-0.287-0.037-0.921,0.559-0.945,0.895C195.717,41.683,195.777,43.161,195.777,44.838z"/>
		<path fill="#FFFFFF" d="M54.589,66.552c-0.062-4.181,1.242-7.957,3.413-11.475c1.467-2.378,3.544-4.011,6.154-4.963
			c4.008-1.46,7.053-0.096,8.187,4.005c1.693,6.128,0.501,11.851-3.298,16.926c-1.777,2.375-4.197,3.965-7.178,4.627
			c-2.636,0.585-4.697-0.067-5.778-2.49c-0.912-2.047-1.297-4.329-1.916-6.506C54.311,66.635,54.45,66.594,54.589,66.552z
			 M58.226,64.665c0.174,1.242,0.225,2.516,0.548,3.717c0.882,3.279,3.574,4.134,6.294,2.078c3.642-2.752,5.413-10.375,3.361-14.46
			c-1.089-2.166-2.963-2.875-5.035-1.62c-1.128,0.683-2.146,1.716-2.904,2.806C58.951,59.395,58.349,61.956,58.226,64.665z"/>
		<path fill="#FFFFFF" d="M185.061,46.379c-2.419-0.297-4.707-0.628-7.006-0.802c-0.31-0.023-0.93,0.721-0.97,1.151
			c-0.129,1.36-0.119,2.746-0.011,4.109c0.029,0.364,0.559,0.927,0.927,0.989c3.019,0.503,6.048,0.938,9.084,1.315
			c0.479,0.06,1.006-0.276,1.774-0.51c0,1.688,0,3.366,0,5.002c-5.248-1.663-10.687-1.449-15.93-2.38c0-7.639,0-15.266,0-23.153
			c4.979,0.528,10.016,1.062,15.315,1.623c0,1.206,0,2.85,0,4.136c-3.159-0.415-6.408-0.81-9.646-1.28
			c-1.308-0.189-1.682,0.403-1.611,1.552c0.01,0.164-0.003,0.329-0.003,0.494c0.001,2.859,0.002,2.838,2.824,3.029
			c0.868,0.059,1.724,0.336,2.592,0.382c0.837,0.043,1.684-0.083,2.658-0.143C185.061,43.41,185.061,45.059,185.061,46.379z"/>
		<path fill="#FFFFFF" d="M100.006,47.408c2.444-0.67,4.906-1.346,7.465-2.048c0,1.35,0,3,0,4.331
			c-2.467,0.501-4.865,0.966-7.246,1.508c-0.236,0.054-0.512,0.573-0.52,0.882c-0.049,1.795-0.023,3.592-0.023,5.735
			c3.92-0.929,7.672-1.818,11.474-2.72c0,1.212,0,2.861,0,4.161c-2.545,0.531-5.058,1.013-7.55,1.587
			c-2.128,0.49-4.228,1.105-6.351,1.62c-0.608,0.148-1.255,0.142-1.846,0.203c0-7.661,0-15.143,0-22.979
			c4.932-1.287,10.104-2.636,15.329-4c0,1.414,0,3.077,0,4.379c-2.321,0.427-4.374,0.795-6.422,1.189
			c-0.588,0.113-1.162,0.301-1.743,0.454C99.356,42.555,98.761,43.759,100.006,47.408z"/>
		<path fill="#FFFFFF" d="M170.009,33.774c-0.568,1.51-1.177,3.123-1.925,5.108c-1.144-2.848-3.302-3.752-5.742-4.097
			c-0.829-0.117-1.919-0.122-2.521,0.323c-0.741,0.546-1.453,1.596-1.502,2.465c-0.036,0.651,0.868,1.725,1.578,1.975
			c1.631,0.574,3.396,0.777,5.112,1.099c1.614,0.302,2.808,1.198,3.673,2.55c1.438,2.247,1.723,4.741,1.252,7.286
			c-0.485,2.621-2.734,4.58-5.564,4.883c-3.008,0.322-5.907-0.056-8.517-1.793c-0.518-0.344-1.176-0.472-2.043-0.805
			c0.543-1.682,1.11-3.438,1.767-5.468c1.612,3.3,4.141,4.339,7.255,4.241c1.824-0.057,3.101-1.44,3.316-3.459
			c0.225-2.084-0.424-3.068-2.509-3.559c-1.646-0.387-3.326-0.629-4.984-0.968c-2.521-0.515-3.933-2.206-4.302-4.614
			c-0.399-2.606,0.047-5.075,2.424-6.737c3.006-2.1,7.438-1.886,11.004,0.444C168.398,33.052,169.104,33.323,170.009,33.774z"/>
		<path fill="#FFFFFF" d="M112.767,56.922c0.579-1.914,1.122-3.709,1.734-5.737c2.279,4.273,8.373,3.715,9.961,0.528
			c0.602-1.205,1.21-2.631,0.262-3.701c-0.638-0.718-1.957-0.961-3.019-1.139c-1.123-0.188-2.301-0.048-3.456-0.05
			c-3.268-0.006-5.327-2.181-5.156-5.449c0.224-4.268,3.892-7.973,8.168-7.93c1.92,0.02,3.834,0.634,5.753,0.97
			c0.552,0.097,1.107,0.166,1.911,0.284c-0.61,1.748-1.208,3.459-1.92,5.496c-1.868-3.136-4.424-3.453-7.275-2.542
			c-0.691,0.22-1.507,0.706-1.816,1.303c-0.417,0.805-0.677,1.908-0.458,2.74c0.123,0.467,1.321,0.791,2.079,0.917
			c0.907,0.152,1.863,0.058,2.795,0.013c5.923-0.285,7.444,4.559,6.56,8.388c-1.08,4.671-5.081,7.542-10.022,7.103
			C116.939,57.943,115.046,57.381,112.767,56.922z"/>
		<path fill="#FFFFFF" d="M269.241,75.09c-2.461-1.362-4.808-2.661-7.673-4.248c0,2.396-0.065,4.322,0.058,6.237
			c0.023,0.36,0.758,0.736,1.226,0.996c2.536,1.411,5.081,2.807,7.646,4.161c0.624,0.329,1.344,0.478,2.273,0.797
			c0,1.403,0,3.094,0,4.825c-4.341-3.394-9.403-5.342-14.032-8.045c-0.507-0.296-1.004-0.61-1.258-0.765
			c0.144-1.449,0.354-2.664,0.369-3.882c0.052-4.45,0.072-8.902,0.03-13.352c-0.018-1.827-0.227-3.653-0.356-5.619
			c0.312,0.109,0.766,0.207,1.16,0.414c3.439,1.807,6.86,3.651,10.309,5.444c0.992,0.516,2.051,0.903,3.245,1.42
			c0,1.397,0,3.017,0,4.892c-2.998-3.025-6.837-4.163-10.239-6.101c-1.263,2.482-0.7,4.559,1.529,5.702
			c1.686,0.864,3.443,1.585,5.158,2.393c0.218,0.103,0.524,0.339,0.529,0.521C269.26,72.373,269.241,73.869,269.241,75.09z"/>
		<path fill="#FFFFFF" d="M255.005,58.159c-0.544,0.94-1.207,2.087-1.924,3.326c-0.914-1.584-1.617-2.971-2.483-4.245
			c-0.516-0.755-1.233-1.404-1.958-1.977c-1.608-1.273-3.478-2.216-5.474-1.324c-2.021,0.903-2.435,2.941-2.553,4.997
			c-0.272,4.691,1.191,8.628,4.987,11.554c1.434,1.105,3.132,1.461,4.829,1.097c0.896-0.193,1.658-1.019,2.637-1.66
			c0.601,1.566,1.285,3.351,1.979,5.16c-0.737,0-1.259-0.115-1.706,0.018c-4.931,1.458-8.96-0.285-12.088-3.907
			c-4.104-4.751-5.547-10.411-4.111-16.586c1.186-5.104,5.243-7,9.748-4.312c2.278,1.36,4.01,3.646,5.967,5.535
			C253.502,56.459,254.082,57.155,255.005,58.159z"/>
		<path fill="#FFFFFF" d="M265.554,240.233c3.757,1.033,7.354,2.099,10.99,2.992c1.544,0.379,2.774-0.625,3.139-2.189
			c0.482-2.084-0.271-3.864-1.929-4.35c-1.778-0.52-3.584-0.957-5.383-1.41c-1.788-0.449-3.583-0.875-5.49-1.338
			c0.201-0.854,0.437-1.848,0.642-2.717c3.871,1.067,7.643,2.1,11.409,3.149c2.114,0.59,3.717,1.784,3.917,4.108
			c0.253,2.922-0.25,5.859-3.066,7.238c-1.358,0.665-3.403,0.174-5.08-0.121c-1.979-0.346-3.923-0.974-5.838-1.611
			c-1.498-0.5-1.929,0.554-2.53,1.457c-0.682,1.024,0.142,1.488,0.763,2.006c2.615,2.176,5.229,4.354,7.87,6.498
			c0.496,0.404,1.111,0.662,1.893,1.113c-0.616,0.892-1.238,1.789-1.743,2.52c-3.682-3.021-7.216-5.921-10.972-9.002
			c-0.83,1.287-1.565,2.427-2.397,3.718c-0.775-0.604-1.786-1.388-2.612-2.028C261.554,246.862,264.343,243.97,265.554,240.233z"/>
		<path fill="#FFFFFF" d="M53.366,55.308c0,1.696,0,3.403,0,4.96c-0.891,0.258-1.74,0.375-2.466,0.737
			c-2.255,1.125-4.435,2.408-6.704,3.5c-1.208,0.582-1.739,1.335-1.578,2.677c0.104,0.862,0.021,1.747,0.021,3.22
			c2.749-1.528,5.155-2.867,7.581-4.215c0,1.427,0,3.038,0,4.632c-2.797,0.468-4.942,2.098-7.229,3.416
			c-0.232,0.134-0.338,0.669-0.326,1.013c0.096,2.786,0.251,5.57,0.339,8.356c0.013,0.371-0.144,0.927-0.413,1.096
			c-1.23,0.774-2.529,1.441-3.632,2.051c0-4.91,0.024-9.75-0.01-14.591c-0.017-2.352,0.025-4.726-0.293-7.044
			c-0.143-1.038,0.012-1.468,0.842-1.915c3.718-2,7.427-4.018,11.118-6.068C51.538,56.622,52.381,55.967,53.366,55.308z"/>
		<path fill="#FFFFFF" d="M222.562,41.905c1.651,0.538,3.404,1.109,5.021,1.636c-0.784,1.904-1.471,3.474-2.082,5.072
			c-1.521,3.984-3.067,7.962-4.474,11.988c-0.377,1.079-0.281,2.323-0.438,3.836c-1.453-0.403-3.276-0.909-4.686-1.3
			c-0.071-1.39,0.051-2.382-0.195-3.274c-1.657-6.002-3.369-11.99-5.121-17.965c-0.333-1.135-0.922-2.196-1.597-3.763
			c1.989,0.489,3.743,0.92,5.055,1.243c0.121,1.568,0.031,2.771,0.331,3.869c1.206,4.419,2.532,8.806,4.17,13.253
			c0.46-1.175,0.945-2.342,1.376-3.528c0.896-2.465,1.864-4.911,2.588-7.426C222.812,44.5,222.562,43.298,222.562,41.905z"/>
		<path fill="#FFFFFF" d="M141.12,55.055c-1.44,0.141-2.944,0.287-4.498,0.438c0-6.494,0-12.766,0-19.411
			c-2.033,0.262-3.986,0.513-6.164,0.794c0-1.375,0-3.042,0-4.235c5.675-0.417,11.082-0.814,16.63-1.221c0,1.265,0,2.912,0,4.459
			c-1.936,0-3.883,0-6.127,0C140.938,42.141,140.195,48.452,141.12,55.055z"/>
		<path fill="#FFFFFF" d="M78.736,260.036c0.802,0.158,1.957,0.386,2.999,0.591c-1.083,5.751-2.133,11.328-3.212,17.062
			c-0.227-0.035-0.74-0.092-1.243-0.203c-0.479-0.104-0.942-0.268-1.222-0.348c0.655-3.455,1.299-6.846,1.941-10.236
			c-0.104-0.045-0.207-0.092-0.31-0.137c-1.746,3.02-3.492,6.039-5.238,9.058c-0.159-0.036-0.317-0.073-0.477-0.11
			c-0.47-3.398-0.939-6.8-1.409-10.199c-0.115,0-0.23,0-0.346,0.002c-0.61,3.242-1.222,6.487-1.878,9.977
			c-0.652-0.139-1.55-0.33-2.278-0.484c1.052-5.695,2.065-11.193,3.136-16.988c1.03,0.179,2.263,0.392,3.055,0.527
			c0.413,3.619,0.784,6.878,1.155,10.137c0.157,0.062,0.313,0.121,0.47,0.183C75.435,266.035,76.991,263.207,78.736,260.036z"/>
		<path fill="#FFFFFF" d="M206.207,280.106c-0.376-5.961-0.739-11.728-1.118-17.73c2.126-0.191,4.499-0.508,6.879-0.596
			c2.773-0.102,3.762,0.671,4.314,3.418c0.54,2.685,0.918,5.432-2.352,7.125c1.239,2.381,2.436,4.675,3.688,7.08
			c-1.106,0.152-2.216,0.306-3.115,0.43c-0.857-1.887-1.584-3.634-2.438-5.316c-1.03-2.029-1.078-2.007-3.629-1.445
			c0.147,2.273,0.301,4.596,0.46,7.037C207.996,280.106,206.979,280.106,206.207,280.106z M211.024,264.915
			c-0.438,0.021-0.875,0.079-1.31,0.057c-1.413-0.07-1.858,0.547-1.797,1.969c0.127,2.877,0.109,2.938,2.995,2.676
			c0.435-0.04,0.861-0.18,1.294-0.191c1.34-0.035,1.776-0.811,1.806-2.025C214.061,265.312,213.544,264.867,211.024,264.915z"/>
		<path fill="#FFFFFF" d="M277.33,220.692c2.196-1.178,4.297-2.303,6.579-3.527c0,1.292,0,2.551,0,3.463
			c-2.149,1.02-4.27,1.82-6.128,3.025c-0.583,0.377-0.464,1.839-0.715,3.039c2.399,0,4.49,0,6.764,0c0,0.9,0,1.99,0,2.974
			c-5.403,0-10.773,0-16.408,0c0-2.687-0.065-5.617,0.024-8.543c0.059-1.883,1.222-2.904,3.034-3.37
			C273.286,217.03,275.762,217.969,277.33,220.692z M270.082,226.662c4.377,0.646,4.396,0.631,4.316-3.216
			c-0.008-0.383-0.033-0.764-0.036-1.146c-0.01-1.263-0.598-1.89-1.902-1.929c-1.357-0.041-2.284,0.425-2.36,1.864
			C270.021,223.694,270.082,225.161,270.082,226.662z"/>
		<path fill="#FFFFFF" d="M108.025,273.995c0.223-3.559,0.435-6.95,0.654-10.441c0.593,0,1.521,0,2.256,0
			c-0.296,5.799-0.585,11.457-0.88,17.217c-0.859,0-1.829,0-2.59,0c-0.343-1.013-0.549-1.945-0.962-2.774
			c-1.416-2.837-2.903-5.638-4.363-8.452c-0.171,0.012-0.342,0.021-0.513,0.031c0,3.482,0,6.966,0,10.553c-1.271,0-2.116,0-2.85,0
			c0.32-5.768,0.634-11.429,0.963-17.37c0.906,0.063,2,0.142,3.039,0.214c0.068,0.734-0.035,1.369,0.197,1.838
			c1.458,2.945,2.986,5.854,4.505,8.771C107.546,273.7,107.719,273.767,108.025,273.995z"/>
		<path fill="#FFFFFF" d="M199.682,263.99c-0.335,1.259-0.68,2.553-1.073,4.034c-0.438-0.522-0.713-0.904-1.041-1.23
			c-1.885-1.87-4.571-1.549-5.756,0.8c-1.445,2.864-1.516,5.814,0.119,8.642c1.155,1.998,4.269,2.389,5.816,0.697
			c0.411-0.449,0.398-1.416,0.318-2.117c-0.027-0.24-0.853-0.551-1.311-0.545c-0.598,0.006-1.189,0.295-1.957,0.512
			c0-1.062,0-2.18,0-3.291c0.934,0.049,1.873,0.117,2.815,0.142c0.974,0.024,1.949,0.005,2.699,0.005
			c0.141,1.953,0.276,3.772,0.397,5.594c0.023,0.354,0.141,0.853-0.042,1.049c-3.178,3.438-8.021,4.357-10.626,0.218
			c-2.54-4.035-2.848-8.358-0.755-12.677c1.573-3.245,4.974-4.275,8.207-2.736C198.18,263.407,198.895,263.666,199.682,263.99z"/>
		<path fill="#FFFFFF" d="M45.156,257.323c-1.31,2.26-2.391,4.125-3.545,6.115c-0.705-0.49-1.538-1.072-2.179-1.52
			c2.925-4.932,5.75-9.691,8.709-14.684c2.046,1.521,4.325,3.1,6.468,4.848c1.378,1.125,1.17,2.777,0.742,4.281
			c-0.753,2.641-2.704,4.142-5.708,4.418c-0.302,2.41-0.608,4.871-0.95,7.611c-1.019-0.697-1.975-1.354-2.592-1.778
			c0.436-2.503,1.001-4.718,1.104-6.952C47.235,258.981,45.998,258.239,45.156,257.323z M46.565,254.853
			c1.078,0.854,1.953,1.604,2.887,2.272c1.003,0.718,2.025,0.916,2.857-0.282c0.768-1.105,1.058-2.234-0.2-3.184
			c-1.075-0.812-2.22-1.532-3.456-2.377C47.885,252.595,47.256,253.672,46.565,254.853z"/>
		<path fill="#FFFFFF" d="M272.357,204.962c0.886-0.124,1.996-0.279,3.091-0.436c0.172,1.916,0.33,3.682,0.474,5.291
			c0.307,0.156,0.354,0.203,0.399,0.201c4.747-0.267,3.886-0.357,3.407-4.09c-0.196-1.531-0.381-3.066-0.599-4.809
			c0.874-0.131,2.121-0.316,3.135-0.469c0.381,3.968,0.748,7.802,1.089,11.35c-5.566,0.786-10.876,1.534-16.373,2.311
			c-0.451-3.371-0.949-7.092-1.475-11.006c0.836-0.134,2.044-0.328,3.101-0.498c0.266,2.676,0.524,5.295,0.812,8.189
			c1.266-0.143,2.408-0.271,3.797-0.43C272.916,208.612,272.651,206.884,272.357,204.962z"/>
		<path fill="#FFFFFF" d="M26.683,200.839c5.417,0.998,10.515,1.938,15.905,2.932c-0.438,2.324-0.815,4.989-1.467,7.588
			c-0.563,2.257-2.427,3.189-4.566,3.395c-3.203,0.307-6.208-0.378-8.812-2.367c-1.425-1.089-2.349-2.537-2.146-4.371
			C25.871,205.537,26.334,203.084,26.683,200.839z M39.442,205.896c-3.482-0.646-6.834-1.269-10.271-1.906
			c-0.545,2.238-1.522,4.259,0.094,6.162c1.316,1.552,5.617,2.469,7.572,1.619C39.363,210.675,38.931,208.212,39.442,205.896z"/>
		<path fill="#FFFFFF" d="M147.653,272.931c-0.504,2.031-0.781,3.94-1.463,5.691c-0.794,2.039-2.435,3.102-4.736,3.202
			c-2.403,0.104-4.022-0.931-4.991-3.015c-1.773-3.822-1.843-7.717-0.3-11.64c0.988-2.513,3.052-3.353,5.507-3.354
			c2.153-0.002,3.671,1.271,4.393,3.182C146.783,268.913,147.142,270.964,147.653,272.931z M145.242,272.926
			c-0.454-1.546-0.669-2.987-1.287-4.229c-1.115-2.24-3.721-2.338-5.229-0.329c-1.669,2.223-1.626,7.018,0.083,9.183
			c1.42,1.801,3.613,1.855,4.775-0.107C144.392,276.075,144.714,274.42,145.242,272.926z"/>
		<path fill="#FFFFFF" d="M87.622,268.358c1.61,0.18,3.175,0.354,4.928,0.552c-0.05,0.979-0.112,2.192-0.165,3.213
			c-1.716-0.263-3.279-0.503-4.678-0.717c-0.278,0.304-0.401,0.374-0.417,0.462c-0.69,4.104-0.688,4.1,3.562,4.412
			c1.114,0.082,2.227,0.205,3.542,0.328c-0.044,0.398-0.118,1.021-0.184,1.646c-0.062,0.597-0.113,1.194-0.154,1.625
			c-3.459-0.485-6.883-0.966-10.082-1.415c0.595-5.734,1.172-11.309,1.777-17.15c3.09,0.281,6.4,0.582,9.919,0.902
			c-0.094,0.926-0.222,2.178-0.337,3.305c-2.12-0.31-4.118-0.61-6.12-0.886c-0.968-0.133-1.414,0.285-1.381,1.304
			C87.856,266.638,87.718,267.342,87.622,268.358z"/>
		<path fill="#FFFFFF" d="M253.149,254.09c0.004,0.628-0.124,1.29,0.034,1.876c1.012,3.742,2.175,7.445,3.109,11.205
			c0.714,2.87-0.986,5.204-4.245,6.212c-3.082,0.954-5.145,0.009-6.27-3.034c-0.682-1.843-1.161-3.758-1.729-5.642
			c-0.688-2.286-1.375-4.572-2.139-7.114c0.801-0.261,1.786-0.582,2.62-0.854c1.099,3.894,2.068,7.584,3.196,11.225
			c0.581,1.877,1.902,2.58,3.498,2.198c1.897-0.453,2.86-1.604,2.377-3.632c-0.938-3.913-2.162-7.758-3.36-11.953
			c0.822-0.122,1.888-0.281,2.952-0.439L253.149,254.09z"/>
		<path fill="#FFFFFF" d="M31.453,226.491c0-1.768,0.01-3.314-0.015-4.861c-0.002-0.177-0.189-0.49-0.313-0.503
			c-1.083-0.103-2.209-0.33-3.235-0.112c-0.368,0.077-0.68,1.267-0.705,1.959c-0.076,2.031,0.004,4.069,0.023,6.227
			c-0.772,0-1.953,0-2.846,0c0-3.721,0-7.458,0-11.126c5.539,0,10.714,0,16.219,0c0,3.547,0,7.134,0,10.815
			c-0.879,0-2.055,0-3.057,0c0-2.552,0-5.115,0-7.887c-0.688-0.043-1.508-0.21-2.288-0.094c-0.396,0.059-0.994,0.605-1.022,0.97
			c-0.116,1.481-0.048,2.978-0.048,4.612C33.404,226.491,32.291,226.491,31.453,226.491z"/>
		<path fill="#FFFFFF" d="M239.293,263.677c-1.525-0.672-2.875-1.644-4.313-1.807c-1.984-0.225-3.793,1.721-3.814,4.141
			c-0.017,1.914,0.438,3.887,1.008,5.733c0.487,1.58,1.89,2.462,3.568,2.433c1.737-0.029,2.965-1.009,3.662-2.613
			c0.169-0.389,0.334-0.777,0.628-1.461c0.731,1.197,1.34,2.194,1.881,3.08c-0.743,0.787-1.393,1.443-2.009,2.131
			c-2.765,3.086-6.771,2.918-9.08-0.519c-2.522-3.749-3.318-7.86-1.727-12.185c1.397-3.797,5.741-5.08,9.092-2.846
			c0.525,0.353,1.105,0.621,1.815,1.014C239.761,261.771,239.492,262.865,239.293,263.677z"/>
		<path fill="#FFFFFF" d="M31.802,235.241c-2.099,0.676-4.001,1.289-6.098,1.964c-0.26-0.933-0.541-1.94-0.763-2.74
			c5.229-1.546,10.321-3.05,15.573-4.601c0.557,2.377,1.308,5.094,1.801,7.857c0.346,1.936-0.917,3.196-2.486,4.065
			c-1.708,0.946-3.611,1.319-5.299,0.228c-0.803-0.521-1.271-1.719-1.646-2.703C32.408,238.06,32.18,236.711,31.802,235.241z
			 M39.511,237.653c0.007-1.73-1.091-4.297-1.789-4.09c-1.086,0.324-2.818-0.107-2.953,1.637c-0.185,2.39,1.151,4.527,2.539,4.494
			C38.639,239.665,39.553,239.171,39.511,237.653z"/>
		<path fill="#FFFFFF" d="M176.925,263.826c0.678,0,1.758,0,2.434,0c1.801,5.78,3.565,11.448,5.365,17.226c-1.106,0-2.275,0-3.013,0
			c-0.491-1.464-0.566-3.347-1.504-4.006c-0.911-0.643-3.05-0.511-4.007,0.176c-0.844,0.604-0.801,2.446-1.232,4.053
			c-0.553,0-1.653,0-2.731,0C173.807,275.616,175.665,269.978,176.925,263.826z M179.869,274.22
			c-0.55-1.888-1.029-3.533-1.508-5.178c-0.129,0.004-0.257,0.009-0.385,0.014c-0.422,1.684-0.846,3.366-1.295,5.164
			C177.82,274.22,178.677,274.22,179.869,274.22z"/>
		<path fill="#FFFFFF" d="M35.934,258.888c-0.672-1.004-1.357-2.025-2.03-3.031c3.303-2.633,3.219-2.916,1.075-5.86
			c-1.173-1.612-1.972-1.554-4.615,0.544c-0.602-0.893-1.195-1.771-1.822-2.701c5.311-1.846,10.536-3.408,15.865-5.814
			c0.406,0.566,1.119,1.56,1.699,2.367C42.111,248.849,39.4,253.974,35.934,258.888z M41.305,246.366
			c-0.076-0.125-0.153-0.248-0.229-0.372c-1.465,0.548-2.931,1.097-4.68,1.751c0.705,1.021,1.229,1.779,1.937,2.804
			C39.454,248.97,40.379,247.668,41.305,246.366z"/>
		<path fill="#FFFFFF" d="M229.383,44.331c0.577,0.125,0.96,0.167,1.314,0.291c0.979,0.343,2.257,0.466,2.821,1.16
			c0.482,0.594,0.146,1.858,0.165,2.826c0.113,6.475,0.228,12.95,0.336,19.425c0.004,0.267-0.04,0.535-0.062,0.791
			c-0.167,0.025-0.288,0.083-0.377,0.051c-1.238-0.435-2.826-0.566-3.59-1.428c-0.584-0.659-0.124-2.244-0.126-3.417
			c-0.007-5.772,0.002-11.545-0.038-17.317C229.823,45.983,229.563,45.257,229.383,44.331z"/>
		<path fill="#FFFFFF" d="M159.711,274.081c-1.615,0-3.144,0-4.82,0c0,2.363,0,4.754,0,7.258c-0.987,0-1.835,0-2.799,0
			c0-5.708,0-11.423,0-17.49c3.281,0,6.531,0,9.893,0c0,0.969,0,2.256,0,3.352c-2.292,0-4.576,0-7.191,0
			c0.082,1.051-0.178,3.068,0.34,3.293c1.305,0.566,2.959,0.324,4.579,0.412C159.711,271.724,159.711,272.963,159.711,274.081z"/>
		<path fill="#FFFFFF" d="M253.195,254.136c0.922-0.854,1.845-1.711,2.552-2.367c2.545,4.265,4.938,8.273,7.521,12.603
			c2.212-1.541,4.239-2.953,6.383-4.444c0.463,0.768,1.153,1.914,1.694,2.811c-3.002,1.992-5.915,3.927-8.729,5.795
			c-2.651-4.461-5.24-8.868-7.902-13.23c-0.319-0.525-1.031-0.812-1.562-1.209C253.149,254.09,253.195,254.136,253.195,254.136z"/>
		<path fill="#FFFFFF" d="M57.434,253.146c3.277,1.809,6.563,2.948,10.087,4.015c-0.32,0.999-0.712,2.221-1.058,3.296
			c-1.229-0.596-2.349-1.139-3.748-1.814c-1.499,4.577-2.926,8.937-4.458,13.614c-0.675-0.237-1.679-0.591-2.461-0.866
			c1.54-4.644,2.99-9.02,4.52-13.631c-1.339-0.426-2.524-0.803-3.9-1.24C56.704,255.563,57.085,254.3,57.434,253.146z"/>
		<path fill="#FFFFFF" d="M114.717,266.812c0-1.158,0-2.358,0-3.276c3.486,0,6.916,0,10.448,0c0,1.237,0,2.468,0,3.583
			c-1.266-0.088-2.479-0.174-4.013-0.28c0,4.789,0,9.412,0,14.194c-1.065,0-2.052,0-2.965,0c0.148-4.417,0.287-8.787,0.451-13.155
			c0.034-0.937-0.386-1.313-1.275-1.254C116.51,266.681,115.657,266.744,114.717,266.812z"/>
		<path fill="#FFFFFF" d="M225.037,278.715c-0.802,0.052-1.854,0.121-2.624,0.171c-0.573-6.002-1.128-11.816-1.711-17.923
			c0.723-0.067,1.811-0.17,2.619-0.245C223.896,266.751,224.452,272.579,225.037,278.715z"/>
	</g>
</g>
</svg>
